<svg width="128" height="40" viewBox="0 0 128 40" fill="none" xmlns="http://www.w3.org/2000/svg">
<path d="M11.3551 40V0L20.5023 2.83687V37.1631L11.3551 40Z" fill="currentColor"></path>
<path d="M0 32.8785L2.2372e-06 7.30989L6.4661 9.12327V31.0652L0 32.8785Z" fill="currentColor"></path>
<path d="M44.0418 19.1964V13.8932H46.8942V26.9843H44.0418V21.6811H33.5646V26.9843H30.7123V13.8932H33.5646V19.1964H44.0418ZM67.5097 26.9843H64.3218L62.8117 24.2585H53.7327L52.2226 26.9843H49.0347L56.3613 13.8932H60.1644L67.5097 26.9843ZM58.2629 16.0812L55.0191 21.9407H61.5254L58.2629 16.0812ZM79.8585 13.8932C80.8776 13.8932 81.7725 14.0848 82.5431 14.468C83.3136 14.8389 83.9102 15.3828 84.3328 16.0998C84.7553 16.8167 84.9666 17.6635 84.9666 18.6401C84.9666 19.6167 84.7553 20.4635 84.3328 21.1804C83.9102 21.8851 83.3136 22.429 82.5431 22.8122C81.7725 23.183 80.8776 23.3685 79.8585 23.3685H72.476V26.9843H69.6236V13.8932H79.8585ZM78.8705 20.8838C79.467 20.8838 79.9704 20.8467 80.3805 20.7725C80.7906 20.6983 81.1511 20.5005 81.4618 20.1791C81.7725 19.8454 81.9279 19.3324 81.9279 18.6401C81.9279 17.9478 81.7725 17.4348 81.4618 17.1011C81.1511 16.7673 80.7906 16.5633 80.3805 16.4892C79.9704 16.415 79.467 16.3779 78.8705 16.3779H72.476V20.8838H78.8705ZM102.887 13.8932V16.3779H96.3056V26.9843H93.4347V16.3779H86.8538V13.8932H102.887ZM105.367 13.8932H108.219V26.9843H105.367V13.8932ZM127.857 20.4202C127.857 22.4475 127.236 24.0607 125.993 25.2598L127.372 26.6134L125.732 28.2452L123.998 26.5393C122.73 27.0832 121.183 27.3551 119.356 27.3551C116.572 27.3551 114.459 26.7432 113.017 25.5194C111.576 24.2956 110.855 22.5959 110.855 20.4202C110.855 18.2569 111.576 16.5695 113.017 15.3581C114.459 14.1342 116.572 13.5223 119.356 13.5223C122.14 13.5223 124.253 14.1342 125.695 15.3581C127.136 16.5695 127.857 18.2569 127.857 20.4202ZM119.356 24.8704C120.375 24.8704 121.245 24.753 121.966 24.5181L119.393 21.9963L121.015 20.3646L123.942 23.2387C124.514 22.5217 124.8 21.5822 124.8 20.4202C124.8 17.4781 122.985 16.007 119.356 16.007C117.541 16.007 116.174 16.3717 115.254 17.1011C114.347 17.818 113.893 18.9244 113.893 20.4202C113.893 23.387 115.714 24.8704 119.356 24.8704Z" fill="currentColor"></path>
</svg>