<svg width="125" height="45" viewBox="0 0 125 45" fill="none" xmlns="http://www.w3.org/2000/svg">
<path d="M107 42.262C107 40.924 108.002 40 109.25 40C110.492 40 111.494 40.924 111.494 42.262C111.494 43.594 110.492 44.506 109.25 44.506C108.002 44.506 107 43.594 107 42.262ZM107.498 42.262C107.498 43.318 108.266 44.056 109.25 44.056C110.252 44.056 110.996 43.318 110.996 42.262C110.996 41.182 110.252 40.456 109.25 40.456C108.266 40.456 107.498 41.182 107.498 42.262ZM108.866 42.52V43.378H108.218V40.978H109.178C109.82 40.978 110.294 41.14 110.294 41.764C110.294 42.124 110.114 42.322 109.856 42.424L110.438 43.378H109.718L109.214 42.52H108.866ZM109.646 41.764C109.646 41.626 109.556 41.482 109.34 41.482H108.866V42.022H109.34C109.556 42.022 109.646 41.908 109.646 41.764Z" fill="#20B8EB"/>
<path d="M9.17424 44.0556H6.23183C5.5293 44.0556 4.95077 43.8407 4.48789 43.4026C4.02511 42.9646 3.76883 42.4274 3.71102 41.7827L0 15.0122H2.28117C5.488 15.0122 7.86829 17.4091 8.12456 20.6077C8.60397 26.5998 9.73624 34.8813 9.8271 35.493C9.91807 36.1046 10.2652 37.0551 10.7777 36.5675C11.2901 36.0798 11.6041 35.2699 11.8273 34.7078L17.5137 19.0538C18.398 16.6238 20.704 15.0039 23.2909 15.0039H27.2747L15.9929 42.0637C15.4887 43.3861 14.563 44.0391 13.2159 44.0391H9.17424" fill="#20B8EB"/>
<path d="M36.4501 22.9281L35.9624 26.4243H45.0458L44.1448 31.7635H35.2186L34.5988 36.1853C34.5161 36.8051 34.6153 37.268 34.8962 37.5986C35.1773 37.921 35.6732 38.0779 36.3675 38.0779H46.7236L46.0045 44.0371C44.616 44.0949 39.1445 44.1528 37.5328 44.1611C35.9129 44.1776 34.3755 44.1858 32.9209 44.1858C30.5984 44.1858 28.8875 43.4998 27.8131 42.1195C26.7304 40.7394 26.3337 38.9623 26.6146 36.7721L28.8049 20.9941C29.0859 19.1096 29.8381 17.6302 31.0613 16.531C32.2762 15.44 33.9128 14.8945 35.9624 14.8945C37.6155 14.8945 39.285 14.8945 40.9711 14.9193C42.6572 14.9276 48.7567 15.1177 50.1453 15.159L49.2609 21.0024H38.8221C38.0618 21.0024 37.508 21.1429 37.1526 21.4156C36.8055 21.7049 36.5741 22.2091 36.4584 22.9364L36.4501 22.9281Z" fill="#20B8EB"/>
<path d="M79.7089 15.0122L76.0061 41.4438C75.8905 42.3448 75.6094 42.9976 75.1465 43.4192C74.6838 43.8407 74.006 44.0473 73.1051 44.0473H69.9891C69.1462 44.0473 68.5428 43.8325 68.1791 43.3943C67.8155 42.9563 67.4601 42.353 67.1294 41.5595L61.658 29.1867C61.3522 28.5421 60.2199 25.1865 60.2199 25.1865C60.2199 25.1865 59.7074 28.8231 59.6 29.6909L57.5337 44.0391H50.2109L53.9137 17.6074C54.0293 16.7066 54.3104 16.0536 54.7732 15.6321C55.236 15.2105 55.9138 15.0039 56.8147 15.0039H59.9307C60.7406 15.0039 61.3357 15.227 61.6994 15.6734C62.063 16.1197 62.4184 16.7231 62.7489 17.4834L68.0965 29.3107C68.4022 30.0133 69.8405 33.4929 69.8405 33.4929C69.8405 33.4929 70.2537 30.1868 70.3694 29.4016L72.4274 15.0039H79.7089V15.0122Z" fill="#20B8EB"/>
<path d="M109.088 15.0117L106.608 32.3931C106.187 35.4264 105.484 37.8316 104.501 39.6085C103.517 41.3938 102.121 42.6748 100.311 43.46C98.5001 44.2452 96.1371 44.6419 93.219 44.6419C90.3015 44.6419 88.0368 44.2287 86.2516 43.4022C84.4664 42.5756 83.2266 41.245 82.5241 39.4018C81.8215 37.567 81.6645 35.1288 82.0612 32.0955L84.4994 15.0117H88.8964C90.756 15.0117 92.1777 16.6564 91.9214 18.4912L89.9378 32.3931C89.7147 33.9965 89.6485 35.2445 89.7477 36.162C89.8469 37.0711 90.1857 37.7158 90.756 38.0795C91.3346 38.4431 92.1942 38.6249 93.343 38.6249C94.4919 38.6249 95.5002 38.4266 96.2029 38.0382C96.905 37.6414 97.4341 36.972 97.8058 36.0214C98.1697 35.071 98.4922 33.7651 98.7735 32.1038L100.806 17.64C101.022 16.1357 102.302 15.0117 103.823 15.0117H109.088Z" fill="#20B8EB"/>
<path d="M124.007 8.3477C124.28 8.67831 124.379 9.09156 124.305 9.58746C124.23 10.0834 123.999 10.4966 123.618 10.8272C123.239 11.1578 122.8 11.3149 122.304 11.3149H116.172L115.204 17.4144C115.122 17.9103 114.899 18.3319 114.51 18.6708C114.131 19.0096 113.684 19.1831 113.189 19.1831C112.692 19.1831 112.303 19.0096 112.031 18.6708C111.759 18.3319 111.659 17.9103 111.742 17.4144L112.709 11.3149H106.576C106.081 11.3149 105.692 11.1496 105.419 10.8272C105.146 10.4966 105.047 10.0834 105.122 9.58746C105.195 9.09156 105.428 8.67831 105.807 8.3477C106.188 8.01711 106.625 7.86007 107.122 7.86007H113.254L114.23 1.7274C114.313 1.2315 114.536 0.81824 114.915 0.487638C115.296 0.157036 115.733 0 116.23 0C116.726 0 117.114 0.165301 117.387 0.487638C117.66 0.81824 117.758 1.2315 117.685 1.7274L116.709 7.86007H122.841C123.338 7.86007 123.727 8.02536 123.999 8.3477H124.007Z" fill="black"/>
</svg>
